<?xml version="1.0" encoding="utf-8"?>
<!-- Generator: Adobe Illustrator 19.1.0, SVG Export Plug-In . SVG Version: 6.00 Build 0)  -->
<svg version="1.1" id="Layer_1" xmlns="http://www.w3.org/2000/svg" xmlns:xlink="http://www.w3.org/1999/xlink" x="0px" y="0px"
	 viewBox="0 0 407.7 133.3" style="enable-background:new 0 0 407.7 133.3;" xml:space="preserve">
<style type="text/css">
	.st0{fill:#FFFFFF;}
</style>
<g>
	<path class="st0" d="M98.6,87.7c4.3,4.3,7.3,9,9.9,14.8h21.2l-6.2,18.5H96.4c-0.4-0.6-0.4-1.1-0.7-2.1
		C89.4,104.6,84,93.2,62.9,92.8l6-18.7c14.4-1.5,25.6-3.9,38-9.4c12-5.2,25.6-20.4,25.6-29.9c-0.4-2.2-1.1-4.3-5.2-4.7
		c-3.4,0.2-6.7,0.2-11.2,1.7c-38.4,13.1-62.9,55-85.7,89.3h-21c15.3-25.3,39.5-68.1,41.2-90c0-1.7-0.4-2.1-2.6-2.1H28.4l6-18.5h10.9
		C57.1,10.4,69,12.7,69,29c0,4.5-0.6,8.4-1.9,12.9c11.8-11.8,37.4-30.7,58.6-30.7c17,0,25.1,11.6,25.1,22.8c0,7.5-3.7,16.5-7.5,22.1
		C133.2,72.2,115.8,82.3,98.6,87.7z"/>
	<path class="st0" d="M198.8,121.2H158c-10.7,0-18.5-7.1-18.5-18.2c0-3.2,0.7-6.6,1.9-10.3c8.4-27,30.9-34.6,38.4-34.6
		c10.7,0,20,4.3,20,16.3c0,7.1-4.9,17.4-20.6,28.3h25.8L198.8,121.2z M168.6,81.6c-2.6,2.4-7.5,6.7-9.4,14.2
		c11.2-6.6,18.9-15.3,21.2-19.5C175.9,76.5,172,78.4,168.6,81.6z"/>
	<path class="st0" d="M248.2,79.3h-9.9l-7.7,23.4h22.3l-6,18.5h-21c-9,0-15.2-7.3-15.2-15c0-0.4,0-3.4,0.9-5.2l7.1-21.7h-10.5
		l6.2-18.5h10.3l7.1-21.7h19.5l-7.1,21.7h9.9L248.2,79.3z"/>
	<path class="st0" d="M315.6,79.3c-5.8,4.3-16.8,17.4-16.8,21.7c0.4,1.1,0.9,1.7,2.2,1.7h21l-6,18.5h-8c-11.6,0-27.5-1.7-27.5-19.7
		c0-7.7,3.9-15.9,8.8-22.3h-3c-1.9,0-8.4,3.4-9.9,11l-17.6-5.8L269,52.4l17.8,5.8l-0.9,2.4h36.9v18.7H315.6z"/>
	<path class="st0" d="M394,94.3h-9c-3.4,14.6-17,27-32.2,27c-15.7,0-27-12.7-27-27.7c0-17.4,14.8-34.1,33.1-34.1
		c10.9,0,20.2,6.2,24.3,15.7h16.8L394,94.3z M352.6,80.3c-4.3,2.6-7.9,8-7.9,12.7s2.8,9.2,8,9.2c4.9,0,9.5-3.6,12.2-8.2
		C358.6,92.8,353.4,87,352.6,80.3z"/>
</g>
</svg>
